<svg xmlns="http://www.w3.org/2000/svg" viewBox="0 0 91 87" fill="none"><path d="M84.1098 15.9858C90.6027 25.071 90.9273 36.2838 90.9923 47.6116C91.0572 58.9394 90.8624 70.2671 84.3695 76.8798C77.8117 83.4925 65.0206 85.3325 54.6969 83.09C44.4381 80.7899 36.7116 74.4647 26.3229 67.8521C15.9992 61.2394 3.0134 54.3967 0.48117 45.3115C-2.05106 36.1688 5.74042 24.7835 16.1291 15.7558C26.4528 6.67053 39.3087 -0.0571356 52.0998 0.000365813C64.8908 0.0578673 77.5519 6.95804 84.1098 15.9858Z" fill="#BBE6DF"/><path d="M26.5074 55.7505C27.6755 55.1611 29.0774 55.6012 29.6991 56.7525L34.1114 64.9228C34.4514 65.5523 35.1757 65.8702 35.8693 65.6952C36.5629 65.5198 37.0488 64.8958 37.0488 64.1803V52.2505C37.0486 51.3877 36.3491 50.6881 35.4861 50.6881C34.6232 50.6881 33.9236 51.3878 33.9236 52.2506V57.9991L32.4486 55.2678C31.0171 52.6173 27.7888 51.6034 25.0997 52.9606C22.7983 54.1217 21.6132 56.6827 22.2177 59.1884L25.0782 71.0448C25.7468 73.8164 26.9388 76.3889 28.621 78.6909L34.2247 86.3592C34.5307 86.778 35.0058 87 35.4875 87C35.8074 87 36.1302 86.902 36.4082 86.6989C37.1049 86.1897 37.2571 85.212 36.7479 84.5153L31.1441 76.847C29.7063 74.8795 28.6875 72.6809 28.1161 70.312L25.2557 58.4555C24.993 57.367 25.5079 56.2548 26.5074 55.7505Z" fill="#005578"/><path d="M61.7852 49.0906C60.8632 49.0906 59.9952 49.3267 59.2383 49.7412C58.4716 47.7441 56.5349 46.322 54.271 46.322C53.2946 46.322 52.3796 46.5877 51.5922 47.0486C50.7507 45.2177 48.9005 43.9423 46.7569 43.9423C45.9746 43.9423 45.2319 44.1134 44.5624 44.418V36.9475C44.5624 34.0144 42.1761 31.628 39.2429 31.628C36.3096 31.628 33.9233 34.0142 33.9233 36.9475V39.6559C33.9233 40.5187 34.6229 41.2184 35.4858 41.2184C36.3488 41.2184 37.0483 40.5187 37.0483 39.6559V36.9477C37.0483 35.7377 38.0329 34.7531 39.2429 34.7531C40.4529 34.7531 41.4374 35.7377 41.4374 36.9477V58.9956C41.4374 59.8584 42.1369 60.5581 42.9999 60.5581C43.8629 60.5581 44.5624 59.8584 44.5624 58.9956V49.2617C44.5624 48.0517 45.5468 47.0672 46.7569 47.0672C47.9671 47.0672 48.9514 48.0517 48.9514 49.2617V58.9956C48.9514 59.8584 49.651 60.5581 50.5139 60.5581C51.3769 60.5581 52.0764 59.8584 52.0764 58.9956V51.6416C52.0764 50.4314 53.0608 49.4469 54.271 49.4469C55.4811 49.4469 56.4655 50.4314 56.4655 51.6416V58.9956C56.4655 59.8584 57.165 60.5581 58.028 60.5581C58.891 60.5581 59.5905 59.8584 59.5905 58.9956V54.4098C59.5905 53.1998 60.575 52.2153 61.785 52.2153C62.995 52.2153 63.9796 53.1998 63.9796 54.4098V67.5941C63.9796 71.1072 63.4464 74.5884 62.3952 77.9406L60.1911 84.9691C59.933 85.7925 60.3911 86.6694 61.2146 86.9275C61.3702 86.9764 61.5275 86.9995 61.6825 86.9995C62.3472 86.9994 62.9636 86.5719 63.173 85.9041L65.3771 78.8756C66.5233 75.2203 67.1046 71.4245 67.1046 67.5941V54.4098C67.1047 51.477 64.7185 49.0906 61.7852 49.0906Z" fill="#005578"/><path d="M82.8689 15.2858C82.5571 14.3266 81.7432 13.6408 80.7449 13.4959L75.9591 12.802L73.8177 8.46578C73.3713 7.56156 72.4675 7 71.4593 7H71.4586C70.4499 7.00016 69.5461 7.56234 69.1 8.46703L66.961 12.8042L62.1755 13.5009C61.1774 13.6462 60.3638 14.3325 60.0525 15.292C59.7411 16.2514 59.9966 17.2845 60.7189 17.9883L64.1829 21.363L63.3666 26.1295C63.1964 27.1238 63.5977 28.1095 64.4138 28.702C64.8747 29.0369 65.4139 29.2067 65.9568 29.2067C66.375 29.2067 66.7955 29.1058 67.1839 28.9016L71.4638 26.65L75.7449 28.8994C76.6377 29.3688 77.6993 29.2916 78.515 28.6983C79.3308 28.1052 79.7316 27.1194 79.5607 26.1252L78.7419 21.3591L82.2039 17.9827C82.926 17.2783 83.1808 16.2448 82.8689 15.2858ZM76.3741 19.3033C75.7539 19.9078 75.4714 20.7784 75.6182 21.6319L76.3113 25.6667L72.6872 23.7627C71.9205 23.3595 71.0052 23.36 70.2388 23.7631L66.6157 25.6692L67.3068 21.6337C67.4527 20.7803 67.1697 19.9102 66.5494 19.3058L63.6169 16.4489L67.6685 15.8592C68.5252 15.7344 69.2655 15.1962 69.6485 14.4195L71.4594 10.748L73.2722 14.4184C73.6557 15.195 74.3961 15.7327 75.2533 15.8572L79.3049 16.4448L76.3741 19.3033Z" fill="#005578"/><path d="M54.4079 15.2858C54.096 14.3266 53.2822 13.6406 52.2839 13.4959L47.4982 12.802L45.3568 8.46578C44.9102 7.56156 44.0066 7 42.9982 7C42.9982 7 42.9977 7 42.9974 7C41.9888 7.00016 41.085 7.56234 40.6389 8.46703L38.4999 12.8042L33.7144 13.5009C32.7163 13.6462 31.9027 14.3325 31.5914 15.292C31.28 16.2514 31.5355 17.2845 32.2579 17.9883L35.7216 21.3628L34.9053 26.1294C34.7352 27.1236 35.1364 28.1094 35.9525 28.7019C36.4135 29.0367 36.9527 29.2066 37.4955 29.2066C37.9138 29.2066 38.3343 29.1056 38.7227 28.9014L43.0027 26.65L47.2838 28.8992C48.1766 29.3686 49.2382 29.2914 50.0539 28.6981C50.8697 28.105 51.2705 27.1192 51.0996 26.125L50.2808 21.3589L53.7429 17.9825C54.4649 17.2783 54.7197 16.245 54.4079 15.2858ZM47.9132 19.3033C47.2932 19.9077 47.0107 20.7781 47.1572 21.6319L47.8503 25.6667L44.2263 23.7627C43.4594 23.3597 42.5439 23.3598 41.7779 23.7631L38.1546 25.6692L38.8457 21.6337C38.9916 20.7802 38.7086 19.91 38.0883 19.3058L35.156 16.4489L39.2074 15.8592C40.0641 15.7344 40.8044 15.1962 41.1875 14.4195L42.9985 10.7478L44.8113 14.4184C45.1946 15.1948 45.935 15.7327 46.7924 15.8572L50.8439 16.4448L47.9132 19.3033Z" fill="#005578"/><path d="M25.9469 15.2858C25.635 14.3266 24.8211 13.6408 23.8229 13.4959L19.0371 12.802L16.8958 8.46578C16.4493 7.56156 15.5457 7 14.5372 7C14.5372 7 14.5368 7 14.5364 7C13.5279 7.00016 12.6241 7.56234 12.178 8.46703L10.0389 12.8042L5.25348 13.5009C4.25535 13.6462 3.44192 14.3325 3.13051 15.2919C2.8191 16.2513 3.07426 17.2844 3.79676 17.9883L7.26066 21.363L6.44442 26.1295C6.27426 27.1238 6.67551 28.1095 7.4916 28.7022C7.9527 29.0369 8.49176 29.2069 9.03473 29.2067C9.45301 29.2067 9.87348 29.1058 10.2619 28.9016L14.5419 26.6502L18.823 28.8994C19.716 29.3684 20.7774 29.2914 21.5932 28.6984C22.4089 28.1052 22.8096 27.1191 22.6388 26.125L21.82 21.3589L25.2821 17.9825C26.0039 17.2783 26.2588 16.245 25.9469 15.2858ZM19.4522 19.3031C18.8321 19.9075 18.5494 20.7781 18.6961 21.6319L19.3893 25.6667L15.7654 23.7627C14.9986 23.3597 14.0832 23.3598 13.3169 23.7631L9.69348 25.6694L10.3844 21.6342C10.5307 20.7808 10.2477 19.9105 9.62723 19.3059L6.69504 16.4489L10.7464 15.8592C11.6032 15.7344 12.3435 15.1962 12.7264 14.4195L14.5374 10.7478L16.3502 14.4184C16.7335 15.1948 17.4739 15.7327 18.3313 15.8572L22.383 16.4448L19.4522 19.3031Z" fill="#005578"/><path d="M36.5908 44.9891C36.3002 44.6983 35.8972 44.5312 35.4861 44.5312C35.0752 44.5312 34.6721 44.6983 34.3814 44.9891C34.0908 45.2798 33.9236 45.6827 33.9236 46.0938C33.9236 46.5047 34.0908 46.9078 34.3814 47.1983C34.6721 47.4889 35.0752 47.6562 35.4861 47.6562C35.8971 47.6562 36.3002 47.4891 36.5908 47.1983C36.8814 46.9078 37.0486 46.5047 37.0486 46.0938C37.0486 45.6825 36.8814 45.2795 36.5908 44.9891Z" fill="#005578"/></svg>