<svg xmlns="http://www.w3.org/2000/svg" viewBox="0 0 94 84" fill="none"><path d="M77.0661 63.6449C69.0546 71.7019 57.3888 75.2238 45.5426 78.5621C33.6964 81.9004 21.7901 85.0219 13.3645 81.5159C4.92394 77.9557 0.0392567 67.8057 0 58.5329C0.0359677 49.2976 4.87217 41.0104 9.39381 30.4164C13.9305 19.8766 18.0923 7.04672 27.0198 2.29777C36.0075 -2.46784 49.7307 0.739068 61.586 6.79869C73.4865 12.7874 83.504 21.5746 86.4018 32.2747C89.2996 42.9748 85.0024 55.5503 77.0661 63.6449Z" fill="#FAD5D5"/><path d="M55.4807 77.9239C37.7917 77.9239 23.3982 63.531 23.3982 45.8419C23.3982 28.1529 37.7917 13.7594 55.4807 13.7594C61.6318 13.7594 67.6163 15.5121 72.7874 18.8312C73.8026 19.4848 74.1001 20.8381 73.4464 21.856C72.7906 22.8739 71.44 23.1681 70.4221 22.515C65.9597 19.6477 60.7918 18.1342 55.4807 18.1342C40.2034 18.1342 27.7731 30.5646 27.7731 45.8419C27.7731 61.1187 40.2034 73.549 55.4807 73.549C70.7575 73.549 83.1879 61.1187 83.1879 45.8419C83.1879 44.9287 83.1441 44.0246 83.0597 43.1354C82.9433 41.9306 83.8239 40.863 85.0255 40.7466C86.233 40.6355 87.2973 41.5108 87.4143 42.7124C87.5131 43.7421 87.5627 44.7861 87.5627 45.8419C87.5627 63.531 73.1698 77.9239 55.4807 77.9239Z" fill="#005578"/><path d="M59.1261 53.1332C58.5664 53.1332 58.0062 52.9201 57.5806 52.4918L44.456 39.3672C43.6015 38.5122 43.6015 37.1269 44.456 36.2724C45.3104 35.4179 46.6957 35.4179 47.5502 36.2724L59.1293 47.8515L89.6626 17.3177C90.5176 16.4632 91.9029 16.4632 92.7573 17.3177C93.6118 18.1722 93.6118 19.5575 92.7573 20.4119L60.6748 52.4945C60.246 52.9201 59.6863 53.1332 59.1261 53.1332Z" fill="#005578"/></svg>