<svg xmlns="http://www.w3.org/2000/svg" viewBox="0 0 97 81" fill="none"><path d="M31.7867 77.7176C21.455 73.159 15.5989 63.5911 9.91856 53.7902C4.23824 43.9894 -1.20919 34.0553 1.33149 24.9859C3.93038 15.8831 14.4877 7.72806 24.8586 4.38223C35.1999 1.11962 45.2681 2.64957 57.8662 3.06435C70.4061 3.51241 85.4474 2.79538 92.2273 9.38446C99.0357 16.0235 97.6992 29.902 92.8636 43.0654C88.1148 56.2454 79.925 68.6768 68.4259 75.1845C56.9269 81.6922 42.1481 82.1929 31.7867 77.7176Z" fill="#D0E1E8"/><path d="M69.1316 20.9613C69.1286 20.9183 69.1212 20.8754 69.1138 20.8309C69.0866 20.6609 69.0299 20.497 68.9464 20.3465V20.3361C68.9464 20.3258 68.9301 20.3198 68.9227 20.3095C68.8356 20.1732 68.7266 20.0526 68.5997 19.9524C68.5684 19.9252 68.5358 19.8995 68.5019 19.8754C68.4753 19.8561 68.453 19.8324 68.4249 19.8146L35.8325 0.555462C35.3673 0.280463 34.7893 0.280463 34.3243 0.555462L1.73185 19.8146C1.27926 20.0802 1.00074 20.5654 1 21.0902V59.6086C0.999815 60.1324 1.27648 60.6174 1.7274 60.8841L34.3199 80.1433C34.358 80.1618 34.3971 80.1781 34.4369 80.1922C34.4799 80.2129 34.5213 80.2307 34.5658 80.247C34.8908 80.3833 35.2571 80.3833 35.5821 80.247C35.6265 80.2307 35.668 80.2129 35.711 80.1922C35.7508 80.1781 35.7899 80.1618 35.828 80.1433L68.4205 60.8841C68.8714 60.6174 69.148 60.1324 69.1479 59.6086V21.0902C69.1479 21.0457 69.1345 21.0043 69.1316 20.9613ZM24.4562 9.82505L37.2828 17.4043C37.978 17.8358 38.8913 17.6221 39.3228 16.9271C39.7543 16.2319 39.5406 15.3185 38.8456 14.8871C38.8276 14.876 38.8095 14.8652 38.791 14.8548L27.3703 8.10525L35.0739 3.55267L64.7538 21.0904L57.0501 25.643L43.2369 17.48C42.5324 17.0635 41.6237 17.2971 41.2072 18.0015C40.7908 18.7059 41.0243 19.6146 41.7287 20.0311L54.1376 27.3644L46.4339 31.917L16.7525 14.3793L24.4562 9.82505ZM55.5672 29.9598V39.8531L47.9139 44.376V34.4827L55.5672 29.9598ZM66.1849 58.7626L36.5554 76.2707V71.4604C36.5554 70.6422 35.8921 69.9789 35.0739 69.9789C34.2558 69.9789 33.5925 70.6422 33.5925 71.4604V76.2707L3.96295 58.7626V21.9361L13.8399 16.0991L43.5183 33.6383L35.0739 38.6279L8.25034 22.7761C7.5459 22.3596 6.6372 22.5931 6.22072 23.2976C5.80424 24.002 6.03776 24.9107 6.7422 25.3272L33.5925 41.1953V65.5345C33.5925 66.3526 34.2558 67.0159 35.0739 67.0159C35.8921 67.0159 36.5554 66.3526 36.5554 65.5345V41.1953L44.9509 36.2338V46.9716C44.9507 47.7897 45.6139 48.4532 46.432 48.4534C46.6974 48.4534 46.958 48.3823 47.1865 48.2471L57.8027 41.979C58.2537 41.7123 58.5303 41.2273 58.5301 40.7034V28.2102L66.1849 23.6857V58.7626Z" fill="#005578"/><path d="M8.40738 49.2382C7.58923 49.2382 6.9259 49.9015 6.9259 50.7197V56.6456C6.9259 57.4637 7.58923 58.1271 8.40738 58.1271C9.22552 58.1271 9.88885 57.4637 9.88885 56.6456V50.7197C9.88885 49.9015 9.22552 49.2382 8.40738 49.2382Z" fill="#005578"/><path d="M14.3333 52.2012C13.5151 52.2012 12.8518 52.8645 12.8518 53.6826V59.6085C12.8518 60.4267 13.5151 61.09 14.3333 61.09C15.1514 61.09 15.8148 60.4267 15.8148 59.6085V53.6826C15.8148 52.8645 15.1514 52.2012 14.3333 52.2012Z" fill="#005578"/></svg>