<svg xmlns="http://www.w3.org/2000/svg" viewBox="0 0 82 87" fill="none"><path d="M75.7912 15.9858C81.642 25.071 81.9345 36.2838 81.993 47.6116C82.0515 58.9394 81.876 70.2671 76.0253 76.8798C70.116 83.4925 58.59 85.3325 49.2873 83.09C40.0431 80.7899 33.0808 74.4647 23.7196 67.8521C14.4169 61.2394 2.71537 54.3967 0.433582 45.3115C-1.84821 36.1688 5.17269 24.7835 14.5339 15.7558C23.8366 6.67053 35.4211 -0.0571356 46.947 0.000365813C58.473 0.0578673 69.882 6.95804 75.7912 15.9858Z" fill="#FFD980"/><path d="M59.6875 86.9998C60.5504 86.9998 61.25 86.3003 61.25 85.4373C61.25 84.5744 60.5504 83.8748 59.6875 83.8748C58.8246 83.8748 58.125 84.5744 58.125 85.4373C58.125 86.3003 58.8246 86.9998 59.6875 86.9998Z" fill="#005578"/><path d="M78.4375 27.625H61.25V19.8125C61.25 18.9497 60.5503 18.25 59.6875 18.25H41.5625V8.5625C41.5625 7.69969 40.8628 7 40 7H1.5625C0.699531 7 0 7.69969 0 8.5625V66.6875C0 67.5503 0.699531 68.25 1.5625 68.25H19.6875V76.0625C19.6875 76.9253 20.387 77.625 21.25 77.625H39.375V85.4375C39.375 86.3003 40.0747 87 40.9375 87H52.6562C53.5191 87 54.2188 86.3003 54.2188 85.4375C54.2188 84.5747 53.5191 83.875 52.6562 83.875H42.5V69.4777C43.122 70.2709 43.7581 71.3142 44.2908 72.1881C45.92 74.8613 47.6045 77.625 50.3125 77.625C53.0205 77.625 54.705 74.8613 56.3342 72.1881C57.3472 70.5261 58.7345 68.25 59.6875 68.25C60.6405 68.25 62.0278 70.5261 63.0408 72.1881C64.67 74.8613 66.3545 77.625 69.0625 77.625C71.7705 77.625 73.455 74.8613 75.0842 72.1881C75.6169 71.3142 76.253 70.2709 76.875 69.4777V83.875H66.7188C65.8559 83.875 65.1562 84.5747 65.1562 85.4375C65.1562 86.3003 65.8559 87 66.7188 87H78.4375C79.3003 87 80 86.3003 80 85.4375V29.1875C80 28.3247 79.3003 27.625 78.4375 27.625ZM39.375 46.375H22.8125V35.4375H39.375V46.375ZM22.8125 49.5H39.375V60.4375H22.8125V49.5ZM42.5 41.3527C43.122 42.1459 43.7581 43.1892 44.2908 44.0631C45.92 46.7362 47.6045 49.5 50.3125 49.5C53.0205 49.5 54.705 46.7362 56.3342 44.0631C57.3472 42.4011 58.7345 40.125 59.6875 40.125C60.6405 40.125 62.0278 42.4011 63.0408 44.0631C64.67 46.7362 66.3545 49.5 69.0625 49.5C71.7705 49.5 73.455 46.7362 75.0842 44.0631C75.6169 43.1892 76.253 42.1459 76.875 41.3527V51.3958C75.033 52.2077 73.7067 54.3813 72.4158 56.4992C71.4028 58.1614 70.0155 60.4375 69.0625 60.4375C68.1095 60.4375 66.7222 58.1614 65.7092 56.4994C64.08 53.8262 62.3955 51.0625 59.6875 51.0625C56.9795 51.0625 55.295 53.8262 53.6658 56.4994C52.6528 58.1614 51.2655 60.4375 50.3125 60.4375C49.3595 60.4375 47.9722 58.1614 46.9592 56.4994C45.6683 54.3814 44.342 52.2078 42.5 51.3959V41.3527ZM76.875 37.3333C75.033 38.1452 73.7067 40.3187 72.4158 42.4367C71.4028 44.0989 70.0155 46.375 69.0625 46.375C68.1095 46.375 66.7222 44.0989 65.7092 42.4369C64.08 39.7638 62.3955 37 59.6875 37C56.9795 37 55.295 39.7638 53.6658 42.4369C52.6528 44.0989 51.2655 46.375 50.3125 46.375C49.3595 46.375 47.9722 44.0989 46.9592 42.4369C45.6683 40.3189 44.342 38.1453 42.5 37.3334V30.75H76.875V37.3333ZM58.125 27.625H40.9375C40.0747 27.625 39.375 28.3247 39.375 29.1875V32.3125H22.8125V21.375H58.125V27.625ZM3.125 65.125V10.125H38.4375V18.25H21.25C20.387 18.25 19.6875 18.9497 19.6875 19.8125V65.125H3.125ZM22.8125 74.5V63.5625H39.375V74.5H22.8125ZM72.4158 70.5619C71.4028 72.2239 70.0155 74.5 69.0625 74.5C68.1095 74.5 66.7222 72.2239 65.7092 70.5619C64.08 67.8887 62.3955 65.125 59.6875 65.125C56.9795 65.125 55.295 67.8887 53.6658 70.5619C52.6528 72.2239 51.2655 74.5 50.3125 74.5C49.3595 74.5 47.9722 72.2239 46.9592 70.5619C45.6683 68.4439 44.342 66.2703 42.5 65.4584V55.4153C43.122 56.2086 43.7581 57.2519 44.2908 58.1258C45.92 60.7987 47.6045 63.5625 50.3125 63.5625C53.0205 63.5625 54.705 60.7988 56.3342 58.1256C57.3472 56.4636 58.7345 54.1875 59.6875 54.1875C60.6405 54.1875 62.0278 56.4636 63.0408 58.1256C64.67 60.7988 66.3545 63.5625 69.0625 63.5625C71.7705 63.5625 73.455 60.7988 75.0842 58.1256C75.6169 57.2517 76.253 56.2084 76.875 55.4152V65.4583C75.033 66.2703 73.7067 68.4437 72.4158 70.5619Z" fill="#005578"/></svg>