<svg xmlns="http://www.w3.org/2000/svg" viewBox="0 0 90 85" fill="none"><path d="M79.0913 63.7275C70.8955 71.9665 58.9363 75.6757 46.7914 79.2019C34.6464 82.7281 22.4392 86.0361 13.7832 82.608C5.11163 79.1255 0.0685859 68.9437 0 59.5835C0.0087147 50.2603 4.94574 41.8307 9.55294 31.0767C14.1757 20.3772 18.4069 7.37079 27.5527 2.4591C36.7602 -2.47021 50.8511 0.586088 63.034 6.54678C75.2631 12.4353 85.5687 21.1737 88.5747 31.937C91.5807 42.7002 87.2099 55.4515 79.0913 63.7275Z" fill="#FFE098"/><path d="M50.416 19.0084C51.7966 20.3865 53.6101 21.0754 55.4235 21.0754C57.237 21.0754 59.0506 20.3865 60.4312 19.0084L66.2049 13.2452C67.544 11.9085 68.2813 10.131 68.2813 8.24023C68.2813 6.34945 67.544 4.57179 66.2049 3.23523C63.4435 0.479127 58.951 0.479127 56.1898 3.23523L55.4235 3.99991L54.6573 3.23523C51.896 0.479127 47.4033 0.479127 44.6421 3.23523C43.303 4.57195 42.5655 6.34945 42.5655 8.24023C42.5655 10.131 43.303 11.9087 44.6421 13.2452L50.416 19.0084ZM47.953 6.5532C48.4208 6.08632 49.0354 5.85273 49.6499 5.85273C50.2644 5.85273 50.8788 6.08617 51.3468 6.5532L53.7684 8.97023C54.6832 9.88336 56.1643 9.88336 57.0791 8.97023L59.5007 6.5532C60.4365 5.61929 61.9585 5.61929 62.8943 6.5532C63.346 7.00414 63.5948 7.6032 63.5948 8.24023C63.5948 8.87727 63.346 9.47633 62.8943 9.92727L57.1205 15.6904C56.1849 16.6242 54.6627 16.6243 53.7269 15.6904L47.9532 9.92727C47.5015 9.47633 47.2527 8.87727 47.2527 8.24023C47.2527 7.6032 47.5013 7.00414 47.953 6.5532Z" fill="#005578"/><path d="M86.4345 38.2539C84.4846 34.9778 81.7321 31.8493 79.8695 30.2023C75.3201 26.1793 71.3282 26.3217 69.3531 26.7646C68.297 27.0015 67.3209 27.4315 66.4802 28.0198C63.4212 25.9407 59.7688 24.9221 55.4237 24.9221C50.9802 24.9221 47.2615 25.9873 44.1607 28.1623C43.3532 27.624 42.4279 27.2284 41.4312 27.0049C39.4563 26.5618 35.4638 26.4196 30.915 30.4423C29.0519 32.0896 26.2993 35.2182 24.3497 38.4943C21.4261 43.4073 20.8669 47.5462 22.6877 50.7961C24.8175 54.5965 28.1477 55.635 30.4647 55.9186C30.1275 57.6459 29.9261 59.5328 29.9261 61.732C29.9261 65.7913 30.8735 69.317 32.7416 72.2114C34.4005 74.7816 36.7671 76.8289 39.7755 78.2969C45.0501 80.8705 51.2323 81.1682 55.4237 81.1682C59.6151 81.1682 65.7973 80.8705 71.0718 78.2969C74.0803 76.8289 76.4468 74.7814 78.1056 72.2116C79.974 69.3175 80.9212 65.7917 80.9212 61.732C80.9212 59.4298 80.7006 57.47 80.3342 55.6764C82.6506 55.3901 85.9711 54.3481 88.0964 50.5556C89.9172 47.3061 89.3579 43.1673 86.4345 38.2539ZM32.8533 48.2447C32.4596 49.2911 32.0791 50.3015 31.7304 51.3186C29.6136 51.21 27.9497 50.5987 26.7761 48.5045C25.6022 46.4092 26.9988 43.2081 28.3771 40.892C30.0586 38.0661 32.4805 35.315 34.0193 33.9545C37.0076 31.3117 39.3033 31.3318 40.4054 31.5792C40.4326 31.5853 40.4596 31.5917 40.4865 31.5982C37.6001 35.1076 35.8782 39.5315 34.4497 43.8162C33.9007 45.4625 33.3685 46.8764 32.8533 48.2447ZM57.294 61.0083C56.6524 61.6481 55.8832 62.095 55.4235 62.095C54.9637 62.095 54.1946 61.6483 53.5534 61.0084C52.9094 60.3661 52.4599 59.5884 52.4599 59.117C52.4599 58.7131 52.5843 58.5927 52.8632 58.4756C53.3319 58.2787 54.1216 58.1909 55.4237 58.1909C56.7257 58.1909 57.5154 58.2787 57.9843 58.4756C58.2631 58.5928 58.3874 58.7131 58.3874 59.117C58.3873 59.5884 57.9376 60.3661 57.294 61.0083ZM74.1679 69.6689C72.9793 71.5106 71.2462 72.996 69.0167 74.0838C65.4677 75.8155 61.2293 76.3127 57.767 76.4403V66.2874C59.0245 65.7578 60.0143 64.9152 60.6037 64.3273C61.5265 63.4069 63.0743 61.5061 63.0743 59.117C63.0743 56.8703 61.8498 55.0148 59.7987 54.1534C58.6988 53.6915 57.4313 53.5033 55.4237 53.5033C53.4159 53.5033 52.1484 53.6917 51.0487 54.1534C48.9976 55.0147 47.773 56.8703 47.773 59.117C47.773 61.5059 49.3208 63.4069 50.2437 64.3273C50.8327 64.915 51.8226 65.7578 53.0802 66.2874V76.4402C49.6179 76.3125 45.3796 75.8153 41.8305 74.0836C39.6011 72.9958 37.868 71.5105 36.6793 69.6688C35.3082 67.5447 34.613 64.8742 34.613 61.7319C34.613 56.8755 35.7149 53.9478 37.2402 49.8953C37.7704 48.4869 38.3186 47.0303 38.8961 45.299C40.2536 41.2272 41.8755 37.0503 44.5285 34.0834C47.2579 31.0312 50.7199 29.6096 55.4237 29.6096C60.1274 29.6096 63.5895 31.0312 66.3188 34.0834C68.9723 37.0506 70.594 41.2273 71.9512 45.299C72.5257 47.022 73.074 48.4787 73.6071 49.8955C75.1323 53.9476 76.2342 56.8753 76.2342 61.7319C76.2343 64.8748 75.5392 67.5452 74.1679 69.6689ZM84.0078 48.2639C82.8304 50.3648 81.16 50.9733 79.0339 51.0792C78.7071 50.1403 78.3545 49.2037 77.9904 48.2362C77.4757 46.8687 76.9437 45.4545 76.3974 43.8164C74.9404 39.4456 73.1781 34.9298 70.1851 31.3873C70.2485 31.3696 70.3131 31.3534 70.3785 31.3387C71.4812 31.0918 73.7764 31.0714 76.7649 33.7142C78.3032 35.0743 80.7253 37.8256 82.407 40.6514C83.7853 42.9678 85.1817 46.1687 84.0078 48.2639Z" fill="#005578"/><path d="M49.1302 41.0956C47.836 41.0956 46.7868 42.145 46.7868 43.4395V46.9661C46.7868 48.2606 47.836 49.31 49.1302 49.31C50.4244 49.31 51.4737 48.2606 51.4737 46.9661V43.4395C51.4737 42.145 50.4244 41.0956 49.1302 41.0956Z" fill="#005578"/><path d="M61.6537 41.0956C60.3595 41.0956 59.3102 42.145 59.3102 43.4395V46.9661C59.3102 48.2606 60.3595 49.31 61.6537 49.31C62.9479 49.31 63.9971 48.2606 63.9971 46.9661V43.4395C63.9973 42.145 62.9481 41.0956 61.6537 41.0956Z" fill="#005578"/></svg>